# xmcd CD database file
#
# Track frame offsets:
#	150
#	26097
#	43820
#	70522
#	84835
#	111775
#	130387
#	139897
#	169265
#	195790
#	212467
#	253850
#	272755
#
# Disc length: 3664 seconds
#
# Revision: 0
# Processed by: cddbd v1.5.1PL0 Copyright (c) Steve Scherf et al.
# Submitted via: CDex 1.51
#
DISCID=b40e4e0d
DTITLE=Mike Rowland and Michael  Maloney - from Angels to Lovers
DYEAR=1992
DGENRE=New Age
TTITLE0=from Angels to Lovers
TTITLE1=from Angels to Lovers
TTITLE2=from Angels to Lovers
TTITLE3=from Angels to Lovers
TTITLE4=from Angels to Lovers
TTITLE5=from Angels to Lovers
TTITLE6=from Angels to Lovers
TTITLE7=from Angels to Lovers
TTITLE8=from Angels to Lovers
TTITLE9=from Angels to Lovers
TTITLE10=from Angels to Lovers
TTITLE11=from Angels to Lovers
TTITLE12=from Angels to Lovers
EXTD=YEAR: 1992
EXTT0=
EXTT1=
EXTT2=
EXTT3=
EXTT4=
EXTT5=
EXTT6=
EXTT7=
EXTT8=
EXTT9=
EXTT10=
EXTT11=
EXTT12=
PLAYORDER=
